<?xml version="1.0" encoding="UTF-8"?>
<svg id="Capa_1" data-name="Capa 1" xmlns="http://www.w3.org/2000/svg" xmlns:xlink="http://www.w3.org/1999/xlink" viewBox="0 0 1264.84 721.04">
  <defs>
    <style>
      .cls-1 {
        clip-path: url(#clippath);
      }

      .cls-2 {
        fill: none;
        stroke: #fff;
        stroke-miterlimit: 10;
        stroke-width: 12px;
      }
    </style>
    <clipPath id="clippath">
      <path class="cls-2" d="M1258.83,40.43s0,640.17,0,640.17c0,0,1.57,34.43-32.87,34.43-34.43,0-1128.52,0-1128.52,0,0,0-40.7-9.39-39.13-56.35,1.57-46.96-.04-486.78-.04-486.78,0,0,15.7-37.57,57.96-34.43,42.26,3.13,702.78,0,702.78,0,12.14-5.37,30.16-19.98,29.74-40.69,0-28.17,0-64.17,0-64.17,0,0,14.09-26.61,37.57-26.61,23.48,0,342.78,0,342.78,0,0,0,29.74,6.26,29.74,34.43Z"/>
    </clipPath>
  </defs>
  <g>
    <g class="cls-1">
      <image width="626" height="352" transform="translate(0 3.83) scale(2.01)" xlink:href="../../../../../Downloads/oficina.png"/>
    </g>
    <path class="cls-2" d="M1258.83,40.43s0,640.17,0,640.17c0,0,1.57,34.43-32.87,34.43-34.43,0-1128.52,0-1128.52,0,0,0-40.7-9.39-39.13-56.35,1.57-46.96-.04-486.78-.04-486.78,0,0,15.7-37.57,57.96-34.43,42.26,3.13,702.78,0,702.78,0,12.14-5.37,30.16-19.98,29.74-40.69,0-28.17,0-64.17,0-64.17,0,0,14.09-26.61,37.57-26.61,23.48,0,342.78,0,342.78,0,0,0,29.74,6.26,29.74,34.43Z"/>
  </g>
  <path class="cls-2" d="M848.74,42H156.91s-23.48,3.13-23.48,29.74v66.3"/>
</svg>